<svg xmlns="http://www.w3.org/2000/svg" viewBox="0 0 64 64" role="img" aria-label="Kara kedi favicon">
  <rect width="64" height="64" rx="14" fill="#fbfaf5"/>
  <path
    fill="#111816"
    d="M18 30c0-7.5 6.1-13.5 14-13.5s14 6 14 13.5v10.2c0 7.2-5.9 12.8-14 12.8s-14-5.6-14-12.8V30Z"
  />
  <path fill="#111816" d="M20.5 19.4 25.2 7l7.1 11.2-7.4 4.3-4.4-3.1Zm23 0L38.8 7l-7.1 11.2 7.4 4.3 4.4-3.1Z"/>
  <circle cx="26.6" cy="32.2" r="3.1" fill="#fbfaf5"/>
  <circle cx="37.4" cy="32.2" r="3.1" fill="#fbfaf5"/>
  <path fill="#fbfaf5" d="M31.1 38.1h1.8l1.3 1.4-2.2 2.1-2.2-2.1 1.3-1.4Z"/>
  <path stroke="#fbfaf5" stroke-linecap="round" stroke-width="2.2" d="M24.5 39.3 12 36.5m12.8 6.5-11 3.8m25.7-7.5L52 36.5M39.2 43l11 3.8"/>
</svg>
